<svg xmlns="http://www.w3.org/2000/svg" version="1.1" xmlns:xlink="http://www.w3.org/1999/xlink" xmlns:svgjs="http://svgjs.dev/svgjs" width="1000" height="204" viewBox="0 0 1000 204"><g transform="matrix(1,0,0,1,-0.6056348047761162,-0.201237842296905)"><svg viewBox="0 0 396 81" data-background-color="#ffffff" preserveAspectRatio="xMidYMid meet" height="204" width="1000" xmlns="http://www.w3.org/2000/svg" xmlns:xlink="http://www.w3.org/1999/xlink"><g id="tight-bounds" transform="matrix(1,0,0,1,0.24008861730862918,0.07990326091200473)"><svg viewBox="0 0 395.52 80.83974067649122" height="80.83974067649122" width="395.52"><g><svg viewBox="0 0 395.52 80.83974067649122" height="80.83974067649122" width="395.52"><g><svg viewBox="0 0 395.52 80.83974067649122" height="80.83974067649122" width="395.52"><g id="textblocktransform"><svg viewBox="0 0 395.52 80.83974067649122" height="80.83974067649122" width="395.52" id="textblock"><g><svg viewBox="0 0 395.52 80.83974067649122" height="80.83974067649122" width="395.52"><path d="M394.594 17.339C392.735 8.947 387.435 6.615 387.435 6.615 371.165-2.028 350.86-0.165 332.619 1.077 300.414 1.127 268.339 2.973 236.208 3.963 168.767 4.114 100.749 1.63 33.643 7.756 27.339 9.636-6.54 8.125 1.121 18.413 3.129 22.692 10.456 27.442 10.232 31.369 11.236 32.057 12.631 30.479 13.226 31.469 15.309 34.138 18.711 32.879 21.501 34.456 17.614 38.669 20.403 42.176 23.062 45.852 18.377 46.808 12.371 46.355 9.675 49.527 9.396 51.826 7.89 51.39 6.235 51.289 5.026 51.222 2.59 51.474 2.999 52.195 4.394 54.662-1.594 56.089 2.162 58.505-0.422 61.124 3.948 63.389 3.353 66.225 3.278 66.796 3.687 67.283 4.338 67.417 7.22 68.139 3.018 69.548 3.464 71.075 33.029 81.514 65.104 74.298 95.394 79.097 103.259 75.741 97.346 80.289 100.489 79.584 102.943 78.762 104.728 82.169 107.499 80.239 107.927 79.685 107.276 78.376 108.8 78.627 109.6 78.762 110.307 78.728 110.418 77.956 110.586 76.798 109.117 77.52 108.726 76.916 112.947 73.861 111.906 81.128 115.866 80.826 115.68 79.936 114.528 78.661 116.889 78.829 119.232 77.553 119.306 76.496 121.389 79.366 121.463 79.987 121.835 80.423 122.43 80.725 128.938 77.604 135.409 81.833 142.233 80.423 146.417 78.879 150.433 81.262 154.672 80.675 156.16 80.205 157.666 79.366 159.098 80.776 176.632 81.078 195.319 79.819 211.943 80.826 256.364 78.946 303.835 81.598 350.674 79.114 361.719 78.158 373.192 76.798 383.958 75.707 383.958 75.707 392.679 72.72 392.679 59.294S394.538 47.547 394.817 36.856C395.096 26.166 396.398 25.73 394.538 17.339Z" opacity="1" fill="#0891b2" data-fill-palette-color="tertiary"></path><g transform="matrix(1,0,0,1,55.76832,26.230666666666668)"><svg width="283.98335999999995" viewBox="1.7000000476837158 -35.25 356.22998046875 35.599998474121094" height="28.378407343157885" data-palette-color="#ffffff"><path d="M1.7-34.85L25.3-34.85 25.3-31.15 15.8-31.15 15.8 0 11.25 0 11.25-31.15 1.7-31.15 1.7-34.85ZM53.2-34.85L57.75-34.85 57.75 0 53.2 0 53.2-15.8 35.45-15.8 35.45 0 30.9 0 30.9-34.85 35.45-34.85 35.45-19.55 53.2-19.55 53.2-34.85ZM88.9 0L86.09-7.75 70.9-7.75 68.09 0 63.3 0 75.9-34.65 81.15-34.65 93.7 0 88.9 0ZM72.2-11.45L84.8-11.45 78.5-29.05 72.2-11.45ZM126.59-34.9L126.59 0 122.04 0 103.74-27.75 103.74 0 99.19 0 99.19-34.9 103.74-34.9 122.04-7.2 122.04-34.9 126.59-34.9ZM156.64-34.85L161.19-34.85 161.19 0 156.64 0 156.64-15.8 138.89-15.8 138.89 0 134.34 0 134.34-34.85 138.89-34.85 138.89-19.55 156.64-19.55 156.64-34.85ZM204.59-34.85L209.13-34.85 209.13 0 204.59 0 204.59-15.8 186.84-15.8 186.84 0 182.28 0 182.28-34.85 186.84-34.85 186.84-19.55 204.59-19.55 204.59-34.85ZM232.68 0.35Q227.83 0.35 223.83-1.93 219.83-4.2 217.51-8.28 215.18-12.35 215.18-17.45L215.18-17.45Q215.18-22.55 217.51-26.63 219.83-30.7 223.83-32.98 227.83-35.25 232.68-35.25L232.68-35.25Q237.58-35.25 241.58-32.98 245.58-30.7 247.88-26.65 250.18-22.6 250.18-17.45L250.18-17.45Q250.18-12.3 247.88-8.25 245.58-4.2 241.58-1.93 237.58 0.35 232.68 0.35L232.68 0.35ZM232.68-3.6Q236.33-3.6 239.26-5.3 242.18-7 243.86-10.15 245.53-13.3 245.53-17.45L245.53-17.45Q245.53-21.65 243.86-24.78 242.18-27.9 239.28-29.6 236.38-31.3 232.68-31.3L232.68-31.3Q228.98-31.3 226.08-29.6 223.18-27.9 221.51-24.78 219.83-21.65 219.83-17.45L219.83-17.45Q219.83-13.3 221.51-10.15 223.18-7 226.11-5.3 229.03-3.6 232.68-3.6L232.68-3.6ZM279.58 0L276.78-7.75 261.58-7.75 258.78 0 253.98 0 266.58-34.65 271.83-34.65 284.38 0 279.58 0ZM262.88-11.45L275.48-11.45 269.18-29.05 262.88-11.45ZM317.28-34.9L317.28 0 312.73 0 294.43-27.75 294.43 0 289.88 0 289.88-34.9 294.43-34.9 312.73-7.2 312.73-34.9 317.28-34.9ZM356.88-24.75L351.43-24.75Q349.98-27.8 347.23-29.48 344.48-31.15 340.82-31.15L340.82-31.15Q337.18-31.15 334.25-29.48 331.32-27.8 329.65-24.68 327.98-21.55 327.98-17.45L327.98-17.45Q327.98-13.35 329.65-10.25 331.32-7.15 334.25-5.48 337.18-3.8 340.82-3.8L340.82-3.8Q345.93-3.8 349.23-6.85 352.53-9.9 353.07-15.1L353.07-15.1 339.18-15.1 339.18-18.8 357.93-18.8 357.93-15.3Q357.53-11 355.23-7.43 352.93-3.85 349.18-1.78 345.43 0.3 340.82 0.3L340.82 0.3Q335.98 0.3 331.98-1.98 327.98-4.25 325.65-8.3 323.32-12.35 323.32-17.45L323.32-17.45Q323.32-22.55 325.65-26.63 327.98-30.7 331.98-32.98 335.98-35.25 340.82-35.25L340.82-35.25Q346.38-35.25 350.65-32.5 354.93-29.75 356.88-24.75L356.88-24.75Z" opacity="1" transform="matrix(1,0,0,1,0,0)" fill="#ffffff" class="undefined-text-0" data-fill-palette-color="quaternary" id="text-0"></path></svg></g></svg></g></svg></g></svg></g><g></g></svg></g><defs></defs></svg><rect width="395.52" height="80.83974067649122" fill="none" stroke="none" visibility="hidden"></rect></g></svg></g></svg>